<svg xmlns="http://www.w3.org/2000/svg" width="150" height="134.593" viewBox="81.321 73.272 150 134.593" enable-background="new 81.321 73.272 150 134.593"><path fill="#29252D" d="M81.32 73.272h150v134.594l-75-13.082-75 13.082z"/><path fill="#fff" d="M215.52 160.113c-1.658 0-3.053-.473-4.188-1.417-.45-.38-.892-.955-1.33-1.723-.44-.766-.655-1.813-.655-3.138 0-.354.125-.65.37-.888.25-.235.552-.354.907-.354.328 0 .616.12.848.354.238.238.356.533.356.888 0 .78.113 1.42.34 1.915.226.496.513.88.87 1.155.352.27.75.46 1.188.565.434.108.868.16 1.295.16.237 0 .573-.032 1.01-.09.435-.056.87-.218 1.296-.477.424-.26.797-.64 1.118-1.138.32-.495.478-1.193.478-2.09 0-.88-.123-1.645-.37-2.31-.253-.66-.593-1.25-1.032-1.77-.44-.52-.94-.996-1.508-1.435-.57-.438-1.17-.883-1.81-1.33-.568-.4-1.14-.83-1.718-1.277-.58-.452-1.105-.946-1.58-1.488-1.11-1.302-1.678-2.806-1.703-4.506 0-.097.008-.287.018-.57.012-.283.052-.615.125-.992.216-1.207.687-2.21 1.42-3.016 1.063-1.112 2.495-1.668 4.29-1.668 1.82 0 3.23.557 4.22 1.668.358.402.642.863.853 1.386.214.52.346 1.085.39 1.7.05.428.066.786.057 1.08-.012.3-.034.47-.057.515-.068.31-.152.58-.248.82-.118.184-.26.35-.422.493-.17.144-.417.19-.753.144-.328-.047-.564-.172-.706-.373s-.233-.408-.282-.62c-.07-.26-.083-.534-.037-.815.05-.33.05-.65 0-.96-.046-.258-.115-.55-.214-.87-.093-.32-.248-.608-.46-.868-.472-.566-1.254-.848-2.343-.848-1.085 0-1.902.304-2.446.922-.26.258-.453.554-.586.885-.125.328-.215.625-.265.888-.07.33-.096.65-.07.957v.108c0 .59.095 1.126.283 1.596.19.472.456.91.8 1.31.34.403.757.8 1.24 1.19.488.39 1.032.81 1.648 1.26.69.45 1.356.93 2.003 1.436.652.507 1.262 1.104 1.827 1.792 1.277 1.56 1.917 3.415 1.917 5.57 0 1.086-.183 2.026-.546 2.82-.373.79-.853 1.442-1.46 1.952-.597.507-1.286.885-2.05 1.133-.767.247-1.545.37-2.325.37zM190.122 160.325c-1.775 0-3.167-.566-4.185-1.7-.804-.9-1.302-2.025-1.488-3.37-.075-.428-.11-.792-.11-1.1v-19.332c0-.333.124-.62.37-.87.25-.247.54-.373.87-.373.357 0 .656.126.906.374s.37.536.37.87v18.832c0 .023-.002.155-.012.394-.015.234.01.52.066.85.06.332.155.684.282 1.063.135.38.326.71.588.994.52.57 1.3.852 2.342.852 1.086 0 1.915-.296 2.484-.89.26-.282.46-.596.6-.94.145-.34.24-.68.284-1.01.07-.353.096-.72.07-1.1v-19.012c0-.358.126-.657.374-.905.25-.248.547-.374.907-.374.33 0 .62.125.87.373.246.248.372.547.372.905v18.905c0 .096-.01.29-.02.586-.007.297-.05.646-.123 1.046-.215 1.3-.722 2.376-1.526 3.228-1.04 1.134-2.47 1.7-4.292 1.7zM164.48 160.04c-1.775 0-3.173-.565-4.19-1.703-.402-.4-.723-.884-.956-1.45-.233-.57-.415-1.195-.532-1.882-.068-.427-.105-.793-.105-1.102V139.61c0-1.087.174-2.034.515-2.838.343-.804.787-1.465 1.33-1.983.543-.524 1.156-.908 1.845-1.156.687-.25 1.37-.373 2.057-.373.427 0 1.01.083 1.756.25.748.166 1.462.554 2.148 1.17.47.404.924.993 1.363 1.774.437.782.66 1.834.66 3.156 0 .356-.126.657-.374.905-.25.25-.547.374-.904.374-.35 0-.654-.126-.902-.375-.253-.248-.372-.55-.372-.905 0-.875-.137-1.565-.41-2.076-.27-.504-.6-.885-.972-1.133-.38-.245-.75-.407-1.118-.476-.368-.07-.657-.108-.87-.108-.402 0-.787.072-1.152.214-.368.137-.68.342-.942.598-.73.664-1.098 1.66-1.098 2.98V153.816c0 .227.022.5.07.82.05.318.136.657.263 1.026.132.368.325.694.587.977.522.566 1.287.852 2.307.852 1.064 0 1.856-.295 2.373-.89.265-.283.456-.592.588-.92.127-.332.225-.65.284-.96.053-.305.088-.566.088-.778v-.318c-.024-.357.08-.666.316-.923.235-.26.534-.4.89-.424.328-.024.63.08.902.318.275.236.422.52.446.85v.534c0 .306-.05.7-.145 1.17-.21 1.326-.71 2.39-1.486 3.19-1.07 1.137-2.49 1.703-4.26 1.703zM117.554 159.973c-.353 0-.65-.124-.885-.376-.24-.245-.354-.538-.354-.866v-23.908c0-.333.115-.62.353-.87.235-.247.53-.373.884-.373.33 0 .623.125.87.373.245.247.373.536.373.87v23.908c0 .328-.127.62-.373.867-.247.252-.538.376-.87.376zM96.524 160.04c-1.773 0-3.167-.565-4.185-1.703-.406-.4-.724-.884-.96-1.45-.235-.57-.416-1.195-.53-1.882-.07-.427-.11-.793-.11-1.102V139.61c0-1.087.175-2.034.516-2.838.346-.804.79-1.465 1.33-1.983.548-.524 1.16-.908 1.845-1.156.69-.25 1.376-.373 2.06-.373.425 0 1.01.083 1.757.25.743.166 1.46.554 2.145 1.17.473.404.927.993 1.368 1.774.434.782.654 1.834.654 3.156 0 .356-.125.657-.375.905-.25.25-.548.374-.906.374-.353 0-.654-.126-.902-.375-.248-.248-.373-.55-.373-.905 0-.875-.138-1.565-.408-2.076-.272-.504-.598-.885-.976-1.133-.383-.245-.75-.407-1.12-.476-.366-.07-.655-.108-.866-.108-.402 0-.787.072-1.152.214-.37.137-.68.342-.944.598-.73.664-1.096 1.66-1.096 2.98V153.816c0 .227.022.5.07.82.048.318.136.657.266 1.026.13.368.326.694.584.977.522.566 1.29.852 2.307.852 1.064 0 1.858-.295 2.376-.89.263-.283.457-.592.587-.92.13-.332.223-.65.284-.96.06-.305.09-.566.09-.778v-.318c-.023-.357.08-.666.315-.923.238-.26.534-.4.89-.424.33-.024.63.08.904.318.27.236.418.52.443.85v.534c0 .306-.05.7-.142 1.17-.213 1.326-.708 2.39-1.49 3.19-1.066 1.137-2.48 1.703-4.256 1.703zM195.185 127.054s-.014.01-.04.037c-.02 0-.033.012-.033.036h-.034l-.037.035c0 .024-.01.034-.036.034l-.034.038h-.037c0 .022-.01.033-.034.033h-.038v.037h-.034l-.034.035c-.093.047-.19.07-.282.07-.05.023-.133.034-.25.034h-.178c-.044 0-.08-.01-.105-.032h-.07c-.048-.024-.077-.035-.09-.035-.01 0-.04-.012-.088-.035-.024-.024-.047-.035-.07-.035-.023 0-.047-.013-.072-.037l-.032-.033s-.012-.014-.04-.038h-.033c0-.02-.012-.033-.034-.033l-.04-.035-.034-.035-.034-.037-.037-.034c-.022-.023-.034-.047-.034-.07-.023 0-.033-.013-.033-.036l-.04-.035c-.02-.022-.03-.06-.03-.105-.023-.024-.038-.044-.038-.055 0-.012-.013-.03-.038-.053l-7.943-18.305v17.842c0 .332-.12.62-.357.87-.238.247-.53.37-.89.37-.326 0-.618-.123-.863-.37-.25-.25-.375-.538-.375-.87v-24.12h.034v-.14l.033-.037v-.074c.027 0 .04-.01.04-.033 0-.022 0-.037.016-.037.01 0 .013-.01.013-.033v-.037h.04v-.035c0-.023.01-.035.03-.035v-.032s.016-.01.038-.034l.038-.04c0-.02.01-.032.034-.032 0-.025.005-.038.017-.038s.016-.01.016-.033c.024 0 .037-.012.037-.035h.034l.04-.035.03-.037c.028 0 .035-.012.035-.034h.04l.03-.037h.038l.037-.035h.037c.044-.048.093-.07.14-.07.047 0 .096-.01.145-.034h.03c.05-.027.146-.037.288-.037H184.083c.022 0 .034.01.034.036H184.262c.022.023.044.033.066.033 0 0 .015.01.04.034h.07l.034.035c.024 0 .05.01.07.034h.038c0 .024.015.037.034.037l.034.035h.037v.037h.032c0 .02.015.035.04.035 0 .023.01.035.033.035.022.024.037.045.037.07.022 0 .037.012.037.034h.032v.04h.037v.034c0 .02.012.032.034.032v.035s.012.013.037.035c0 .024.005.037.017.037.013 0 .016.01.016.032 0 0 .017.025.04.07l7.942 18.34V102.3c0-.334.123-.625.356-.872.238-.247.532-.372.888-.372.33 0 .62.125.87.372.245.248.37.538.37.87V126.418s-.01.014-.037.04v.103l-.034.034v.072c-.023 0-.036.012-.036.035v.036l-.032.037v.032c-.024 0-.04.013-.04.04v.032h-.03v.035l-.038.035c0 .024-.01.035-.034.035 0 .024-.007.037-.017.037-.015 0-.018.01-.018.034zM96.546 127.868c-1.795 0-3.19-.565-4.183-1.7-.804-.828-1.314-1.95-1.525-3.37-.05-.4-.08-.756-.09-1.064-.01-.306-.01-.52.016-.64V107.19c0-1.086.17-2.033.517-2.838.342-.8.783-1.465 1.33-1.983.542-.523 1.157-.908 1.84-1.155.69-.25 1.386-.372 2.095-.372 1.515 0 2.805.47 3.866 1.42.452.4.88.998 1.296 1.788.414.795.625 1.852.625 3.177 0 .328-.126.62-.374.868-.25.25-.537.374-.868.374-.358 0-.66-.125-.905-.375-.248-.246-.372-.54-.372-.868 0-.897-.134-1.607-.408-2.13-.272-.517-.586-.908-.94-1.17-.355-.26-.715-.426-1.08-.495-.368-.07-.645-.107-.836-.107-.85 0-1.58.27-2.197.814-.736.687-1.102 1.704-1.102 3.05V121.61c0 .227.022.505.074.833.044.333.132.687.265 1.065.13.376.336.712.62.993.52.57 1.3.853 2.34.853 1.112 0 1.928-.295 2.446-.888.262-.283.463-.602.606-.957.14-.356.24-.684.298-.994.06-.306.088-.565.088-.78v-4.857h-2.48c-.355 0-.656-.125-.906-.373-.248-.25-.37-.55-.37-.902 0-.335.123-.623.37-.873.25-.25.552-.373.907-.373h4.962v6.953c.026.093.03.293.02.603-.013.31-.055.66-.126 1.063-.258 1.302-.77 2.365-1.525 3.192-1.065 1.135-2.497 1.7-4.294 1.7zM129.014 125.812c.142.33.152.657.032.976-.115.32-.34.54-.672.654-.096.05-.18.08-.265.09-.087.012-.163.02-.234.02-.26 0-.49-.06-.69-.18-.2-.118-.36-.31-.477-.57l-4.262-9.75h-3.685v9.258c0 .354-.127.65-.375.885-.248.236-.55.357-.902.357-.336 0-.623-.12-.873-.357-.245-.235-.37-.53-.37-.885v-23.874c0-.354.125-.653.37-.903.25-.25.537-.374.873-.374h5.283c.757 0 1.482.23 2.18.694.697.46 1.318 1.103 1.86 1.932.475.756.843 1.596 1.1 2.52.26.92.393 1.854.393 2.8 0 .97-.132 1.913-.392 2.837-.257.923-.624 1.763-1.1 2.517-.59.902-1.226 1.552-1.912 1.954l4.116 9.398zm-10.25-11.242h4.005c.305 0 .63-.134.972-.39.343-.26.66-.618.942-1.066.356-.543.635-1.164.833-1.863.203-.694.302-1.41.302-2.142 0-.712-.1-1.416-.303-2.112-.2-.698-.478-1.32-.833-1.863-.282-.47-.598-.832-.942-1.082-.34-.247-.667-.37-.973-.37h-4.007v10.89zM215.588 127.55h-4.678c-.36 0-.654-.123-.892-.37-.235-.25-.35-.542-.35-.87V102.4c0-.33.115-.617.35-.867.238-.25.532-.374.892-.374h4.678c.71 0 1.405.124 2.094.373.687.25 1.3.63 1.846 1.154.544.522.983 1.182 1.33 1.986.34.803.514 1.75.514 2.84v13.654c0 1.11-.174 2.063-.515 2.856-.346.792-.785 1.455-1.33 1.985-.546.53-1.16.922-1.845 1.172-.69.248-1.383.37-2.094.37zm-3.44-2.52h3.44c.875 0 1.606-.27 2.2-.81.732-.69 1.097-1.707 1.097-3.053v-13.655c0-1.3-.365-2.32-1.098-3.052-.613-.546-1.35-.814-2.2-.814h-3.439v21.385zM145.788 158.233c.14.33.155.657.034.976-.118.317-.34.538-.672.652-.098.05-.186.08-.27.09-.08.013-.157.02-.228.02-.258 0-.49-.06-.694-.178-.2-.12-.358-.306-.475-.57l-4.256-9.752h-3.692v9.26c0 .353-.123.648-.37.883-.248.237-.55.358-.907.358-.328 0-.62-.122-.868-.358s-.37-.53-.37-.884V134.86c0-.358.123-.657.37-.905.248-.247.54-.374.868-.374h5.288c.755 0 1.483.23 2.182.693.698.46 1.32 1.106 1.86 1.933.476.757.837 1.596 1.102 2.517.26.924.387 1.86.387 2.802 0 .972-.127 1.916-.387 2.84-.265.92-.625 1.762-1.1 2.516-.595.9-1.23 1.553-1.916 1.95l4.114 9.403zm-10.252-11.243h4.01c.307 0 .633-.134.974-.39.346-.262.655-.615.944-1.065.353-.542.63-1.166.83-1.863.2-.698.305-1.413.305-2.147 0-.71-.106-1.412-.305-2.11-.2-.698-.478-1.318-.83-1.86-.29-.474-.6-.835-.945-1.086-.34-.246-.667-.37-.973-.37h-4.01v10.89zM156.394 117.86l.98 4.53.983 4.544c.06.275-.115.546-.39.603-.034.006-.07.013-.108.013h-3.935c-.28 0-.51-.228-.51-.512 0-.042.01-.087.02-.13l.98-4.518.983-4.54c.056-.273.328-.45.603-.387.208.043.355.203.394.398z"/><path fill="#F06739" d="M142.126 109.773l-.008-.01.133-.085c.008-.005.013-.008.023-.012l12.854-8.564c.478-.318 1.1-.307 1.566.02l12.86 8.566c.25.168.442.41.543.696l5.44 15.36c.25.727-.13 1.52-.856 1.777-.726.256-1.522-.124-1.775-.85l-5.278-14.923-11.732-7.814-11.73 7.814-5.284 14.922c-.257.725-1.05 1.104-1.774.85-.726-.256-1.108-1.05-.85-1.776l5.434-15.36c.087-.24.234-.454.436-.61zM154.997 101.263V90.72h1.795v10.543zM164.7 93.254l-4.53.98-4.543.984c-.272.06-.542-.114-.603-.39-.008-.035-.012-.072-.012-.107v-3.934c0-.28.228-.507.507-.507.048 0 .092.006.132.02l4.518.978 4.543.982c.272.057.45.328.387.602-.044.206-.205.353-.4.392z"/><g fill="#fff"><path d="M112.028 177.206v-8.734c0-.077.046-.118.14-.118h1.717c.22 0 .437.038.64.118.206.078.387.192.544.34.392.373.59.886.595 1.545v4.974c0 .674-.2 1.19-.596 1.542-.158.15-.34.265-.545.343-.203.076-.42.116-.64.116h-1.718c-.092 0-.14-.043-.14-.124zm.26-.134h1.596c.19 0 .375-.033.557-.1.18-.068.344-.17.49-.316.14-.145.26-.326.35-.543.08-.216.124-.478.124-.782v-4.973c0-.3-.044-.558-.125-.783-.09-.223-.21-.402-.35-.542-.146-.137-.31-.243-.49-.312-.18-.072-.367-.108-.556-.108h-1.596v8.46zM126.913 177.206v-8.718c0-.093.046-.138.135-.134h3.212c.093 0 .135.045.13.134 0 .08-.042.12-.13.125h-3.087v4.645h2.344c.093 0 .142.04.142.12 0 .09-.05.136-.143.136h-2.344v3.56h3.087c.093 0 .135.043.13.133 0 .08-.042.124-.13.126h-3.212c-.09-.003-.135-.046-.135-.127zM140.956 168.488c0-.082.042-.122.135-.122h4.05c.092 0 .14.04.14.122 0 .09-.047.137-.14.137h-1.877v8.566c0 .096-.044.142-.132.142-.08 0-.122-.045-.126-.14v-8.567h-1.912c-.094 0-.136-.048-.136-.137zM155.98 177.19v-8.703c0-.082.042-.122.12-.122h1.912c.22 0 .436.066.647.2.21.137.394.332.56.59.158.243.28.522.37.83.082.31.126.626.126.95 0 .313-.044.624-.127.93-.09.308-.212.586-.37.837-.252.375-.536.623-.847.74l1.62 3.704c.008.018.013.038.018.05 0 .018-.004.032-.01.044-.01.032-.035.06-.07.08h-.046c-.06 0-.1-.026-.13-.08l-1.64-3.75c-.027.007-.06.012-.1.012h-1.78v3.687c0 .08-.043.124-.134.127-.078 0-.12-.044-.12-.126zm.255-3.96h1.778c.17 0 .343-.06.517-.178.177-.124.334-.288.47-.5.14-.22.254-.475.327-.756.08-.285.12-.57.12-.86 0-.3-.042-.59-.12-.872-.074-.284-.19-.537-.328-.76-.14-.21-.298-.38-.47-.498-.174-.123-.348-.18-.517-.18h-1.778v4.604zM170.678 175.53V170.253c0-.656.196-1.173.588-1.54.167-.144.35-.254.557-.336.206-.085.42-.124.645-.124.218 0 .434.035.645.108.21.08.397.184.562.324.417.372.628.893.632 1.568v5.34c0 .105-.014.238-.052.388-.034.15-.086.314-.152.485-.07.173-.174.332-.314.482-.322.338-.764.507-1.322.507-.552 0-.983-.17-1.297-.507-.14-.15-.244-.313-.315-.494-.068-.18-.118-.35-.142-.508-.025-.16-.035-.3-.035-.414zm.257 0c0 .09.012.198.037.325.024.145.064.302.123.47.06.17.147.32.267.45.265.284.635.42 1.105.417.485 0 .866-.14 1.133-.424.125-.134.218-.28.272-.436.056-.157.098-.304.123-.44.027-.136.04-.25.04-.343v-.146l.01-5.15c0-.32-.045-.592-.138-.812-.098-.224-.22-.402-.372-.538-.152-.137-.32-.236-.512-.3-.19-.06-.372-.092-.554-.092-.19 0-.38.035-.563.107-.19.068-.353.172-.493.313-.14.142-.25.324-.338.543-.086.223-.127.48-.127.777v5.08c-.01.115-.015.18-.015.198zM185.59 177.206v-8.734c0-.077.048-.118.14-.118.09 0 .136.04.133.118v8.734c0 .08-.044.124-.132.126-.092-.002-.14-.045-.14-.126zM196.696 168.488c0-.082.046-.122.14-.122h4.045c.094 0 .14.04.14.122 0 .09-.045.137-.14.137h-1.875v8.566c0 .096-.042.142-.132.142-.08 0-.12-.045-.123-.14v-8.567h-1.915c-.093 0-.14-.048-.14-.137z"/></g><path fill="#fff" d="M104.884 172.853c0-.307.253-.556.557-.556.307 0 .557.25.557.556 0 .308-.25.555-.556.555-.303 0-.556-.248-.556-.555zM206.468 172.853c0-.307.248-.556.56-.556.303 0 .556.25.556.556 0 .308-.253.555-.557.555-.31 0-.56-.248-.56-.555z"/></svg>