<svg xmlns="http://www.w3.org/2000/svg" width="150" height="67" viewBox="-43.923 5.737 150 67" enable-background="new -43.923 5.737 150 67"><path fill="#29252D" d="M-43.923 5.737h150v67h-150z"/><g fill="#fff"><path d="M30.11 46.32l.987 4.56.99 4.574c.058.276-.116.55-.392.607-.035.008-.07.015-.11.015h-3.959c-.28 0-.514-.23-.514-.516 0-.043.01-.09.02-.132l.985-4.55.99-4.57c.057-.275.33-.453.607-.39.207.042.355.204.395.4zM15.745 38.176l-.008-.01.134-.085c.008-.004.014-.006.023-.012l12.94-8.62c.482-.322 1.11-.31 1.578.02l12.95 8.622c.252.17.444.413.545.7l5.476 15.466c.252.73-.13 1.53-.86 1.788-.73.257-1.533-.126-1.787-.856L41.42 40.165 29.608 32.3l-11.81 7.865-5.32 15.023c-.258.73-1.058 1.113-1.786.856-.73-.257-1.115-1.057-.856-1.788l5.472-15.465c.086-.24.234-.456.437-.614zM28.703 29.608V19.225h1.807v10.383zM38.472 21.544l-4.562.987-4.574.992c-.274.06-.545-.115-.607-.392-.008-.035-.014-.073-.014-.107v-3.96c0-.283.23-.512.51-.512.05 0 .095.008.135.02l4.55.986 4.573.99c.274.058.452.33.39.605-.042.207-.206.356-.4.394z"/></g></svg>