<svg xmlns="http://www.w3.org/2000/svg" width="51" height="51.001" viewBox="0 0 51 51.001"><circle stroke="#fff" stroke-miterlimit="10" cx="25.811" cy="25.535" r="25"/><path fill="#fff" d="M24.223 35.453c-2.58 0-4.443-1.632-4.443-3.594 0-1.924 2.31-3.524 4.89-3.496.603.007 1.164.103 1.673.268 1.4.974 2.404 1.524 2.688 2.634.055.226.084.456.084.693 0 1.96-1.264 3.493-4.89 3.493M24.9 23.95c-1.73-.052-3.377-1.937-3.676-4.21-.3-2.274.863-4.014 2.593-3.963 1.73.052 3.377 1.876 3.676 4.15.3 2.274-.86 4.076-2.593 4.023m3.59 3.368c-.607-.43-1.768-1.475-1.768-2.09 0-.72.206-1.075 1.29-1.923 1.11-.87 1.898-2.09 1.898-3.51 0-1.69-.753-3.337-2.166-3.882h2.13l1.505-1.087h-6.722c-3.012 0-5.848 2.283-5.848 4.926 0 2.702 2.054 4.883 5.12 4.883.213 0 .42-.004.622-.02-.2.38-.342.81-.342 1.255 0 .75.404 1.36.915 1.858-.386 0-.76.01-1.164.01-3.73 0-6.604 2.377-6.604 4.842 0 2.427 3.15 3.945 6.88 3.945 4.254 0 6.605-2.413 6.605-4.84 0-1.946-.574-3.112-2.35-4.367m9.778-3.17H35.65v-2.615h-2.105v2.616H30.93v2.105h2.616v2.617h2.106v-2.617h2.617V24.15z"/></svg>