<svg xmlns="http://www.w3.org/2000/svg" width="51" height="51" viewBox="0 0 51 51"><path d="M25.5 51C39.584 51 51 39.582 51 25.5 51 11.416 39.584 0 25.5 0 11.415 0 0 11.417 0 25.5 0 39.58 11.415 51 25.5 51"/><path fill="#fff" d="M33.325 12.75H17.68c-2.717 0-4.927 2.21-4.927 4.928v15.645c0 2.717 2.21 4.927 4.928 4.927h15.644c2.718 0 4.928-2.21 4.928-4.928V17.678c0-2.718-2.21-4.928-4.927-4.928zm1.414 2.94l.563-.003v4.322l-4.31.013-.014-4.322 3.76-.01zm-12.876 7.193c.816-1.13 2.14-1.87 3.64-1.87s2.822.74 3.637 1.87c.534.738.852 1.64.852 2.617 0 2.474-2.015 4.488-4.49 4.488s-4.487-2.013-4.487-4.488c0-.977.318-1.88.85-2.617zm13.904 10.44c0 1.347-1.095 2.442-2.444 2.442H17.68c-1.347 0-2.443-1.095-2.443-2.443v-10.44h3.807c-.33.81-.514 1.693-.514 2.618 0 3.844 3.127 6.973 6.972 6.973 3.845 0 6.972-3.13 6.972-6.973 0-.925-.186-1.808-.514-2.617h3.807v10.44z"/></svg>