<svg xmlns="http://www.w3.org/2000/svg" width="51" height="51.001" viewBox="0 0 51 51.001"><path fill="#fff" d="M39.628 18.465c-.932.412-1.933.692-2.983.817 1.072-.643 1.896-1.66 2.284-2.873-1.005.594-2.117 1.026-3.3 1.26-.946-1.01-2.296-1.64-3.79-1.64-2.867 0-5.192 2.324-5.192 5.192 0 .407.046.803.135 1.183-4.315-.216-8.144-2.283-10.704-5.425-.448.767-.705 1.658-.705 2.61 0 1.8.917 3.39 2.31 4.322-.85-.027-1.65-.26-2.35-.65-.002.022-.002.044-.002.066 0 2.516 1.79 4.615 4.165 5.092-.436.118-.895.182-1.368.182-.335 0-.66-.032-.977-.093.66 2.062 2.58 3.564 4.85 3.606-1.777 1.394-4.015 2.223-6.45 2.223-.418 0-.83-.025-1.238-.073 2.298 1.473 5.027 2.333 7.96 2.333 9.552 0 14.776-7.913 14.776-14.776 0-.225-.004-.45-.014-.67 1.016-.734 1.896-1.648 2.592-2.69z"/><circle stroke="#fff" stroke-miterlimit="10" cx="25.5" cy="25.501" r="25"/><path fill="#fff" d="M20.775 35.464h-4.23V21.927h4.23v13.537zm-2.223-15.23h-.03c-1.532 0-2.524-1.035-2.524-2.346 0-1.337 1.022-2.35 2.584-2.35 1.56 0 2.52 1.01 2.55 2.346 0 1.312-.99 2.35-2.58 2.35zm19.146 15.23H32.9V28.46c0-1.834-.748-3.086-2.4-3.086-1.26 0-1.96.844-2.29 1.658-.12.292-.1.698-.1 1.106v7.325h-4.753s.062-12.408 0-13.537h4.752v2.124c.28-.93 1.797-2.255 4.22-2.255 3.005 0 5.368 1.948 5.368 6.14v7.53z"/></svg>