<svg xmlns="http://www.w3.org/2000/svg" width="51" height="51" viewBox="0 0 51 51"><circle stroke="#fff" stroke-miterlimit="10" cx="25.5" cy="25.501" r="25"/><path fill="#fff" d="M39.938 18.498c-.932.412-1.933.692-2.983.817 1.072-.643 1.896-1.66 2.284-2.873-1.005.595-2.117 1.027-3.3 1.26-.946-1.01-2.296-1.64-3.79-1.64-2.867 0-5.192 2.325-5.192 5.193 0 .407.046.803.135 1.183-4.315-.216-8.144-2.283-10.704-5.425-.448.767-.705 1.658-.705 2.61 0 1.8.917 3.39 2.31 4.322-.85-.027-1.65-.26-2.35-.65-.002.022-.002.044-.002.066 0 2.517 1.79 4.616 4.165 5.093-.436.118-.895.182-1.368.182-.335 0-.66-.032-.977-.093.66 2.063 2.58 3.565 4.85 3.607-1.777 1.393-4.015 2.222-6.45 2.222-.418 0-.83-.024-1.238-.072 2.298 1.473 5.027 2.333 7.96 2.333 9.552 0 14.776-7.913 14.776-14.776 0-.225-.004-.45-.014-.67 1.016-.733 1.896-1.648 2.592-2.69z"/></svg>