<?xml version="1.0" encoding="utf-8"?>
<!-- Generator: Adobe Illustrator 18.0.0, SVG Export Plug-In . SVG Version: 6.00 Build 0)  -->
<!DOCTYPE svg PUBLIC "-//W3C//DTD SVG 1.1//EN" "http://www.w3.org/Graphics/SVG/1.1/DTD/svg11.dtd">
<svg version="1.1" id="Layer_1" xmlns="http://www.w3.org/2000/svg" xmlns:xlink="http://www.w3.org/1999/xlink" x="0px" y="0px"
	 viewBox="0 0 125 125" enable-background="new 0 0 125 125" xml:space="preserve">
<g>
	<g>
		<path fill="#010101" d="M-86.394,4.03c32.292,0,58.47,26.178,58.47,58.47s-26.178,58.47-58.47,58.47s-58.47-26.178-58.47-58.47
			S-118.686,4.03-86.394,4.03 M-86.394,0c-8.436,0-16.621,1.653-24.329,4.913c-7.443,3.148-14.127,7.654-19.865,13.393
			c-5.739,5.739-10.244,12.422-13.393,19.865c-3.26,7.708-4.913,15.893-4.913,24.329s1.653,16.621,4.913,24.329
			c3.148,7.443,7.654,14.127,13.393,19.865c5.739,5.739,12.422,10.245,19.865,13.393c7.708,3.26,15.893,4.913,24.329,4.913
			s16.621-1.653,24.329-4.913c7.443-3.148,14.127-7.654,19.865-13.393s10.245-12.422,13.393-19.865
			c3.26-7.708,4.913-15.893,4.913-24.329s-1.653-16.621-4.913-24.329c-3.148-7.443-7.654-14.127-13.393-19.865
			S-54.622,8.061-62.065,4.913C-69.773,1.653-77.958,0-86.394,0L-86.394,0z"/>
	</g>
	<g>
		<g>
			<path fill="#E5E5E5" d="M-88.79,73.423l-16.919-10.316c-0.895,2.111-2.133,5.352-2.029,6.916
				c0.162,2.429,13.118,10.203,15.385,10.689c2.267,0.486,16.357,0.972,17.814-3.401c0.688-2.064,0.798-4.706,0.689-6.971
				L-88.79,73.423z"/>
		</g>
		<g>
			<path fill="#4AC2C4" d="M-87.428,81.99c-2.116,0-4.224-0.135-5.128-0.329c-1.466-0.314-5.633-2.683-8.809-4.752
				c-7.2-4.69-7.303-6.239-7.342-6.822c-0.092-1.376,0.616-3.852,2.104-7.359c0.11-0.26,0.328-0.459,0.597-0.546
				c0.269-0.086,0.562-0.052,0.803,0.095l16.592,10.117l14.565-3.007c0.278-0.058,0.567,0.01,0.792,0.184
				c0.224,0.174,0.361,0.437,0.375,0.721c0.098,2.037,0.05,4.961-0.738,7.325C-74.885,81.422-82.814,81.99-87.428,81.99z
				 M-105.244,64.528c-1.034,2.575-1.584,4.524-1.523,5.429c0.119,0.523,1.988,2.425,6.639,5.437
				c3.612,2.339,7.105,4.178,7.98,4.366c0.646,0.139,2.521,0.286,4.721,0.286c6.654,0,11.352-1.195,11.968-3.044
				c0.562-1.685,0.693-3.757,0.675-5.478l-13.808,2.85c-0.241,0.05-0.492,0.006-0.702-0.122L-105.244,64.528z"/>
		</g>
	</g>
	<g>
		<g>
			<polygon fill="#E5E5E5" points="-85.713,44.273 -121.989,53.18 -105.709,63.107 -88.79,73.423 -73.849,70.339 -53.485,66.136 			
				"/>
		</g>
		<g>
			<path fill="#4AC2C4" d="M-88.79,74.395c-0.177,0-0.352-0.049-0.506-0.142l-33.199-20.243c-0.335-0.204-0.514-0.59-0.454-0.978
				c0.06-0.388,0.347-0.702,0.729-0.795l36.276-8.907c0.267-0.065,0.549-0.015,0.777,0.14l32.228,21.863
				c0.323,0.219,0.483,0.611,0.408,0.994c-0.076,0.383-0.374,0.683-0.757,0.762l-35.305,7.288
				C-88.658,74.388-88.724,74.395-88.79,74.395z M-119.488,53.567l30.877,18.828l32.677-6.745l-29.967-20.33L-119.488,53.567z"/>
		</g>
	</g>
	<g>
		<path fill="#4AC2C4" d="M-59.967,79.281l-1.457-0.015c0.003-0.249-0.044-0.518-0.094-0.804c-0.077-0.443-0.156-0.901-0.07-1.376
			c0.089-0.491,0.214-0.951,0.323-1.357c0.167-0.618,0.311-1.152,0.285-1.585c-0.07-1.139-0.546-2.003-0.928-2.697
			c-0.51-0.927-1.142-1.578-1.855-2.273c-0.338-0.329-1.286-1.195-2.787-2.115c-0.456-0.28-1.005-0.526-1.586-0.787
			c-0.543-0.244-1.105-0.496-1.671-0.808c-0.46-0.254-0.925-0.536-1.375-0.809c-0.572-0.347-1.164-0.706-1.766-1.021
			c-0.566-0.296-1.17-0.572-1.754-0.839c-0.506-0.231-1.029-0.471-1.534-0.726c-0.565-0.285-1.105-0.593-1.627-0.891
			c-0.545-0.311-1.059-0.604-1.572-0.856c-0.628-0.308-1.258-0.553-1.867-0.79c-0.53-0.206-1.03-0.401-1.493-0.623
			c-1.06-0.508-1.471-0.772-1.833-1.005c-0.324-0.208-0.603-0.388-1.366-0.741l0.613-1.322c0.853,0.396,1.187,0.61,1.54,0.837
			c0.343,0.22,0.697,0.448,1.675,0.917c0.413,0.198,0.889,0.383,1.392,0.579c0.638,0.248,1.297,0.505,1.98,0.84
			c0.554,0.271,1.112,0.59,1.653,0.898c0.506,0.289,1.029,0.587,1.56,0.855c0.481,0.242,0.992,0.476,1.486,0.702
			c0.601,0.275,1.222,0.559,1.822,0.873c0.644,0.337,1.256,0.707,1.847,1.066c0.457,0.277,0.889,0.539,1.324,0.779
			c0.513,0.283,1.047,0.523,1.564,0.755c0.624,0.281,1.214,0.546,1.75,0.874c1.626,0.997,2.669,1.95,3.043,2.314
			c0.768,0.749,1.508,1.513,2.114,2.613c0.428,0.778,1.016,1.844,1.106,3.31c0.042,0.672-0.14,1.344-0.332,2.055
			c-0.107,0.396-0.218,0.806-0.296,1.237c-0.04,0.22,0.014,0.533,0.072,0.865C-60.026,78.535-59.963,78.899-59.967,79.281z"/>
	</g>
	<g>
		<circle fill="#4AC2C4" cx="-60.794" cy="79.664" r="1.528"/>
		<path fill="#4AC2C4" d="M-60.794,81.528c-1.028,0-1.864-0.836-1.864-1.864s0.836-1.864,1.864-1.864
			c1.028,0,1.864,0.836,1.864,1.864S-59.766,81.528-60.794,81.528z M-60.794,78.472c-0.658,0-1.193,0.535-1.193,1.193
			c0,0.658,0.535,1.192,1.193,1.192c0.658,0,1.192-0.535,1.192-1.192C-59.602,79.007-60.137,78.472-60.794,78.472z"/>
	</g>
	<g>
		<g>
			<path fill="#4AC2C4" d="M-83.94,60.221c-0.036-0.009-0.06-0.042-0.059-0.079c0.046-1.566-1.135-3.019-2.808-3.455
				c-0.332-0.086-0.671-0.13-1.008-0.13c-0.636,0-1.259,0.156-1.801,0.451c-0.012,0.006-0.025,0.01-0.038,0.01
				c-0.022,0-0.044-0.009-0.06-0.027c-0.024-0.028-0.026-0.069-0.004-0.099c0.595-0.808,1.592-1.291,2.666-1.291
				c0.311,0,0.625,0.041,0.931,0.12c0.878,0.229,1.623,0.753,2.098,1.477c0.476,0.727,0.624,1.567,0.416,2.366
				c-0.054,0.208-0.134,0.409-0.244,0.617c-0.014,0.026-0.041,0.042-0.07,0.042C-83.926,60.224-83.933,60.223-83.94,60.221z"/>
		</g>
		<g>
			<path fill="#4AC2C4" d="M-87.051,55.681c0.299,0,0.605,0.038,0.912,0.118c1.776,0.462,2.876,2.14,2.457,3.746
				c-0.055,0.213-0.138,0.412-0.238,0.599c0.046-1.579-1.12-3.078-2.868-3.533c-0.345-0.09-0.691-0.133-1.028-0.133
				c-0.663,0-1.295,0.165-1.838,0.461C-89.077,56.157-88.109,55.681-87.051,55.681 M-87.051,55.523l0,0.158L-87.051,55.523
				c-1.1,0-2.12,0.495-2.73,1.323c-0.044,0.06-0.041,0.142,0.008,0.198c0.031,0.035,0.075,0.054,0.119,0.054
				c0.026,0,0.052-0.006,0.076-0.019c0.531-0.289,1.14-0.442,1.763-0.442c0.33,0,0.663,0.043,0.988,0.128
				c1.638,0.426,2.794,1.846,2.749,3.376c-0.002,0.073,0.047,0.139,0.118,0.158c0.014,0.004,0.027,0.005,0.041,0.005
				c0.057,0,0.112-0.031,0.14-0.084c0.113-0.213,0.195-0.42,0.251-0.634c0.44-1.689-0.714-3.456-2.571-3.939
				C-86.412,55.564-86.732,55.523-87.051,55.523L-87.051,55.523z"/>
		</g>
	</g>
	<g>
		<path fill="#4AC2C4" d="M-57.461,94.773l-0.486-0.017c0.008-0.246,0.023-0.507,0.037-0.779c0.049-0.898,0.104-1.917-0.017-2.994
			c-0.1-0.886-0.263-1.825-0.422-2.732c-0.06-0.345-0.12-0.69-0.177-1.033c-0.103-0.62-0.174-1.236-0.243-1.831
			c-0.08-0.697-0.156-1.355-0.276-1.956l-0.193-0.976c-0.231-1.173-0.245-1.243-0.598-2.763l0.473-0.11
			c0.356,1.527,0.37,1.598,0.602,2.779l0.193,0.975c0.123,0.62,0.2,1.288,0.281,1.995c0.068,0.589,0.139,1.199,0.24,1.807
			c0.057,0.342,0.117,0.686,0.177,1.03c0.16,0.915,0.324,1.86,0.426,2.761c0.126,1.117,0.069,2.157,0.02,3.074
			C-57.438,94.273-57.453,94.53-57.461,94.773z"/>
	</g>
	<g>
		<path fill="#4AC2C4" d="M-59.567,96.795c-1.001-0.754-1.556-2.081-1.928-3.154c-0.269-0.778-0.294-1.619-0.32-2.51
			c-0.01-0.337-0.02-0.686-0.045-1.029c-0.032-0.441-0.108-0.9-0.182-1.344c-0.119-0.717-0.242-1.458-0.196-2.188
			c0.055-0.873,0.207-1.694,0.353-2.489c0.064-0.35,0.127-0.688,0.177-1.011c0.136-0.884,0.154-1.338,0.17-1.702
			c0.019-0.474,0.035-0.848,0.283-1.822l0.471,0.12c-0.236,0.924-0.249,1.258-0.268,1.721c-0.015,0.377-0.035,0.845-0.175,1.756
			c-0.05,0.328-0.114,0.67-0.179,1.026c-0.144,0.78-0.292,1.587-0.346,2.431c-0.043,0.674,0.076,1.388,0.19,2.077
			c0.075,0.455,0.153,0.925,0.187,1.388c0.026,0.354,0.036,0.708,0.046,1.05c0.025,0.852,0.049,1.657,0.294,2.365
			c0.349,1.007,0.864,2.25,1.761,2.925L-59.567,96.795z"/>
	</g>
	<g>
		<path fill="#4AC2C4" d="M-62.547,94.38c-0.505-0.927-0.848-2.076-1.077-3.614c-0.199-1.337-0.263-2.589-0.19-3.722
			c0.059-0.902,0.292-1.774,0.498-2.544c0.101-0.377,0.196-0.733,0.268-1.074c0.17-0.811,0.226-1.266,0.271-1.631
			c0.07-0.575,0.113-0.922,0.509-1.984l0.455,0.17c-0.376,1.008-0.413,1.315-0.482,1.873c-0.046,0.374-0.103,0.841-0.277,1.672
			c-0.075,0.355-0.171,0.717-0.274,1.1c-0.21,0.785-0.427,1.596-0.482,2.45c-0.072,1.099-0.009,2.316,0.185,3.618
			c0.221,1.48,0.546,2.578,1.023,3.454L-62.547,94.38z"/>
	</g>
	<g>
		<path fill="#4AC2C4" d="M-58.162,94.468c-1.67-0.485-2.617-1.686-3.322-2.796c-0.72-1.132-1.142-2.471-1.289-4.093
			c-0.147-1.618-0.043-3.025,0.309-4.182l0.102-0.336c0.527-1.735,0.548-1.803,1.41-3.572l0.437,0.213
			c-0.845,1.734-0.855,1.767-1.382,3.5L-62,83.539c-0.334,1.096-0.431,2.44-0.29,3.996c0.14,1.543,0.538,2.811,1.215,3.876
			c0.658,1.034,1.534,2.15,3.048,2.59L-58.162,94.468z"/>
	</g>
	<g>
		<path fill="#4AC2C4" d="M-60.031,93.981l-0.474-0.106c0.114-0.507,0.113-1.378,0.113-2.387c0-0.316-0.001-0.648,0.003-0.995
			c0.004-0.447,0.026-0.902,0.05-1.384c0.033-0.678,0.068-1.38,0.049-2.075c-0.014-0.511-0.02-1.02-0.025-1.517
			c-0.008-0.69-0.015-1.341-0.043-1.948c-0.048-1.028,0.006-1.487,0.053-1.892c0.045-0.386,0.087-0.751,0.033-1.587l0.485-0.032
			c0.057,0.88,0.012,1.266-0.036,1.674c-0.047,0.406-0.096,0.825-0.05,1.814c0.029,0.615,0.036,1.271,0.044,1.965
			c0.005,0.494,0.011,1.001,0.025,1.509c0.02,0.714-0.015,1.425-0.049,2.113c-0.024,0.477-0.046,0.928-0.05,1.365
			c-0.003,0.345-0.003,0.676-0.003,0.99C-59.906,92.568-59.905,93.421-60.031,93.981z"/>
	</g>
	<g>
		<path fill="#4AC2C4" d="M-58.687,96.897c-0.473-1.086-0.835-2.192-1.076-3.286c-0.086-0.391-0.192-0.786-0.304-1.204
			c-0.187-0.696-0.38-1.415-0.49-2.161c-0.098-0.66-0.132-1.335-0.164-1.988c-0.025-0.504-0.049-0.98-0.099-1.451
			c-0.076-0.705-0.071-1.382-0.066-2.036c0.004-0.499,0.007-0.97-0.027-1.404c-0.074-0.943-0.135-1.363-0.189-1.734
			c-0.062-0.426-0.111-0.761-0.152-1.683l0.485-0.022c0.04,0.898,0.088,1.223,0.147,1.635c0.055,0.378,0.117,0.807,0.193,1.766
			c0.036,0.455,0.032,0.936,0.029,1.446c-0.005,0.64-0.009,1.303,0.064,1.98c0.052,0.484,0.077,0.99,0.102,1.478
			c0.032,0.641,0.065,1.304,0.159,1.94c0.106,0.718,0.296,1.424,0.479,2.106c0.114,0.424,0.221,0.824,0.309,1.225
			c0.235,1.064,0.587,2.139,1.047,3.197L-58.687,96.897z"/>
	</g>
</g>
<g>
	<g>
		<path fill="#010101" d="M62.5,4.03c32.292,0,58.47,26.178,58.47,58.47s-26.178,58.47-58.47,58.47S4.03,94.792,4.03,62.5
			S30.208,4.03,62.5,4.03 M62.5,0c-8.436,0-16.621,1.653-24.329,4.913c-7.443,3.148-14.127,7.654-19.865,13.393
			C12.567,24.044,8.061,30.728,4.913,38.171C1.653,45.879,0,54.064,0,62.5s1.653,16.621,4.913,24.329
			c3.148,7.443,7.654,14.127,13.393,19.865c5.739,5.739,12.422,10.245,19.865,13.393C45.879,123.347,54.064,125,62.5,125
			s16.621-1.653,24.329-4.913c7.443-3.148,14.127-7.654,19.865-13.393c5.739-5.739,10.244-12.422,13.393-19.865
			C123.347,79.121,125,70.936,125,62.5s-1.653-16.621-4.913-24.329c-3.148-7.443-7.654-14.127-13.393-19.865
			c-5.739-5.739-12.422-10.245-19.865-13.393C79.121,1.653,70.936,0,62.5,0L62.5,0z"/>
	</g>
	<g>
		<circle fill="none" cx="62.5" cy="53.904" r="2.535"/>
	</g>
	<g>
		<circle fill="none" cx="62.5" cy="46.718" r="2.535"/>
	</g>
	<g>
		<circle fill="none" cx="62.5" cy="61.089" r="2.535"/>
	</g>
	<g>
		<g>
			<path fill="#4AC2C4" d="M80.202,67.014c-1.146-1.47-4.346-3.572-8.149-6.098c0.586-1.747,0.965-3.559,1.13-5.431
				c0.353-4.004-0.258-8.303-1.816-12.776c-1.007-2.89-2.299-5.549-3.623-7.865c-1.223,1.553-3.118,2.553-5.244,2.553
				s-4.021-1-5.244-2.553c-1.324,2.316-2.617,4.975-3.623,7.865c-1.558,4.474-2.169,8.772-1.816,12.776
				c0.165,1.872,0.544,3.685,1.13,5.431c-3.802,2.527-7.002,4.629-8.149,6.098c-1.398,1.793,0.547,4.984,2.434,5.527
				c-0.914-1.835,0.784-3.806,1.17-4.209c0.748-0.783,3.733-2.352,6.225-3.585c0.765,1.397,1.676,2.743,2.738,4.032
				c-1.195,4.869-1.49,5.864-1.493,5.874c-0.042,0.141,0.029,0.291,0.165,0.348c0.143,0.059,3.523,1.444,6.462,1.444
				s6.32-1.385,6.462-1.444c0.136-0.056,0.208-0.207,0.165-0.348c-0.003-0.01-0.297-1.005-1.493-5.874
				c1.062-1.289,1.973-2.635,2.738-4.032c2.491,1.233,5.477,2.802,6.225,3.585c0.386,0.403,2.084,2.374,1.17,4.209
				C79.654,71.998,81.6,68.807,80.202,67.014z M62.5,63.773c-1.585,0-2.87-1.285-2.87-2.87c0-1.585,1.285-2.87,2.87-2.87
				c1.585,0,2.87,1.285,2.87,2.87C65.37,62.488,64.085,63.773,62.5,63.773z M62.5,55.638c-1.585,0-2.87-1.285-2.87-2.87
				c0-1.585,1.285-2.87,2.87-2.87c1.585,0,2.87,1.285,2.87,2.87C65.37,54.353,64.085,55.638,62.5,55.638z M62.5,47.503
				c-1.585,0-2.87-1.285-2.87-2.87c0-1.585,1.285-2.87,2.87-2.87c1.585,0,2.87,1.285,2.87,2.87
				C65.37,46.218,64.085,47.503,62.5,47.503z"/>
		</g>
		<g>
			<path fill="#4AC2C4" d="M62.5,36.248c1.976,0,3.721-0.992,4.772-2.503c-1.689-2.841-3.38-5.104-4.549-6.552
				c-0.055-0.068-0.137-0.107-0.223-0.107c-0.087,0-0.169,0.039-0.223,0.107c-1.168,1.448-2.859,3.711-4.549,6.552
				C58.779,35.256,60.525,36.248,62.5,36.248z"/>
		</g>
		<g>
			<path fill="#E5E5E5" d="M58.013,77.08c-0.362,0.043-0.939,1.579-1.561,3.948c-1.043,3.973,2.87,4.88,1.794,7.535
				c-1.076,2.655-0.215,3.445-0.215,2.655c0-0.789,0.43-1.363,1.363-2.512c-0.215,0.359,1.215,4.391,0.789,6.243
				c-0.585,2.549-0.828,3.089-0.502,2.942c1.01-0.455,1.22-2.799,5.454-8.611c4.234-5.813,3.283-9.617,1.992-12.344
				C62.773,78.635,58.874,76.977,58.013,77.08z"/>
		</g>
	</g>
</g>
<g>
	<g>
		<path fill="#010101" d="M216.664,4.03c32.292,0,58.47,26.178,58.47,58.47s-26.178,58.47-58.47,58.47s-58.47-26.178-58.47-58.47
			S184.372,4.03,216.664,4.03 M216.664,0c-8.436,0-16.621,1.653-24.329,4.913c-7.443,3.148-14.127,7.654-19.865,13.393
			c-5.739,5.739-10.244,12.422-13.393,19.865c-3.26,7.708-4.913,15.893-4.913,24.329s1.653,16.621,4.913,24.329
			c3.148,7.443,7.654,14.127,13.393,19.865c5.739,5.739,12.422,10.245,19.865,13.393c7.708,3.26,15.893,4.913,24.329,4.913
			s16.621-1.653,24.329-4.913c7.443-3.148,14.127-7.654,19.865-13.393c5.739-5.739,10.245-12.422,13.393-19.865
			c3.26-7.708,4.913-15.893,4.913-24.329s-1.653-16.621-4.913-24.329c-3.148-7.443-7.654-14.127-13.393-19.865
			c-5.739-5.739-12.422-10.245-19.865-13.393C233.285,1.653,225.1,0,216.664,0L216.664,0z"/>
	</g>
	<g>
		<g>
			<path fill="#4AC2C4" d="M217.057,68.43L217.83,72l0.774,3.58c0.049,0.216-0.089,0.428-0.307,0.475
				c-0.027,0.007-0.055,0.011-0.083,0.011l0,0h-1.549h-1.549c-0.222,0-0.403-0.18-0.403-0.399c0-0.036,0.006-0.072,0.015-0.104
				L215.498,72l0.776-3.577c0.047-0.216,0.258-0.356,0.474-0.306C216.912,68.153,217.026,68.279,217.057,68.43L217.057,68.43z"/>
		</g>
		<g>
			<path fill="#4AC2C4" d="M232.142,74.646l-4.285-12.106c-0.08-0.223-0.231-0.414-0.428-0.55l-10.058-6.697v-4.904l2.662-0.575
				l3.572-0.773c0.151-0.033,0.28-0.148,0.316-0.31c0.047-0.216-0.092-0.427-0.307-0.474l-3.581-0.777l-3.559-0.77
				c-0.032-0.011-0.069-0.014-0.104-0.014c-0.221,0-0.412,0.18-0.412,0.402v8.193l-10.03,6.682c-0.005,0-0.011,0.008-0.016,0.008
				l-0.104,0.068l0.005,0.008c-0.156,0.125-0.273,0.29-0.341,0.482l-4.283,12.106c-0.203,0.572,0.099,1.197,0.67,1.399
				c0.572,0.201,1.198-0.097,1.399-0.669l4.163-11.763l9.245-6.157l9.244,6.157l4.161,11.763c0.199,0.572,0.828,0.87,1.399,0.669
				C232.042,75.843,232.342,75.217,232.142,74.646z"/>
		</g>
	</g>
	<g>
		<path fill="#4AC2C4" d="M216.23,95.959c-0.001,0-0.002,0-0.003,0c-0.493-0.007-0.988-0.024-1.47-0.051
			c-0.127-0.007-0.225-0.116-0.218-0.244c0.007-0.127,0.114-0.22,0.244-0.218c0.475,0.027,0.963,0.044,1.449,0.05
			c0.128,0.002,0.23,0.107,0.228,0.234C216.459,95.857,216.356,95.959,216.23,95.959z M218.421,95.916
			c-0.122,0-0.224-0.096-0.231-0.219c-0.006-0.127,0.091-0.236,0.219-0.243c0.481-0.025,0.967-0.061,1.446-0.107
			c0.131-0.017,0.24,0.081,0.252,0.208c0.012,0.127-0.081,0.24-0.208,0.252c-0.486,0.047-0.979,0.083-1.467,0.109
			C218.429,95.916,218.425,95.916,218.421,95.916z M212.589,95.714c-0.009,0-0.019-0.001-0.028-0.002
			c-0.484-0.059-0.974-0.13-1.456-0.21c-0.126-0.021-0.211-0.14-0.19-0.266c0.021-0.126,0.14-0.21,0.266-0.19
			c0.475,0.079,0.958,0.15,1.435,0.208c0.127,0.015,0.217,0.131,0.201,0.257C212.803,95.628,212.704,95.714,212.589,95.714z
			 M222.05,95.528c-0.111,0-0.209-0.081-0.228-0.194c-0.021-0.126,0.065-0.245,0.191-0.265c0.476-0.078,0.956-0.167,1.426-0.265
			c0.126-0.025,0.247,0.054,0.274,0.179c0.026,0.125-0.054,0.248-0.179,0.274c-0.476,0.099-0.963,0.189-1.446,0.268
			C222.075,95.527,222.062,95.528,222.05,95.528z M208.996,95.072c-0.018,0-0.036-0.002-0.053-0.006
			c-0.472-0.111-0.951-0.236-1.424-0.369c-0.123-0.035-0.194-0.163-0.16-0.286c0.035-0.122,0.161-0.194,0.286-0.16
			c0.466,0.132,0.938,0.255,1.404,0.365c0.124,0.029,0.201,0.154,0.172,0.278C209.195,95.001,209.1,95.072,208.996,95.072z
			 M225.615,94.743c-0.101,0-0.194-0.067-0.223-0.169c-0.034-0.123,0.038-0.251,0.161-0.285c0.464-0.129,0.93-0.271,1.388-0.42
			c0.123-0.04,0.252,0.026,0.292,0.148c0.04,0.122-0.026,0.252-0.148,0.292c-0.465,0.152-0.938,0.296-1.408,0.426
			C225.656,94.74,225.635,94.743,225.615,94.743z M205.494,94.038c-0.026,0-0.052-0.005-0.078-0.014
			c-0.459-0.164-0.922-0.341-1.377-0.526c-0.118-0.048-0.175-0.183-0.127-0.301c0.048-0.119,0.183-0.174,0.301-0.127
			c0.448,0.183,0.906,0.357,1.358,0.519c0.12,0.043,0.183,0.175,0.14,0.296C205.678,93.979,205.589,94.038,205.494,94.038z
			 M229.072,93.569c-0.091,0-0.178-0.055-0.215-0.145c-0.048-0.118,0.01-0.253,0.128-0.301c0.445-0.179,0.892-0.371,1.33-0.57
			c0.116-0.053,0.253-0.002,0.306,0.115c0.053,0.116,0.002,0.253-0.115,0.306c-0.444,0.202-0.898,0.396-1.349,0.578
			C229.13,93.563,229.101,93.569,229.072,93.569z M202.124,92.62c-0.034,0-0.068-0.008-0.101-0.023
			c-0.443-0.216-0.884-0.443-1.31-0.675c-0.112-0.061-0.153-0.201-0.092-0.314c0.061-0.112,0.201-0.154,0.314-0.092
			c0.42,0.229,0.854,0.452,1.291,0.665c0.115,0.056,0.162,0.194,0.106,0.309C202.292,92.572,202.209,92.62,202.124,92.62z
			 M232.372,92.024c-0.083,0-0.162-0.044-0.204-0.122c-0.06-0.113-0.018-0.253,0.094-0.313c0.422-0.227,0.846-0.467,1.26-0.714
			c0.11-0.065,0.252-0.029,0.317,0.08c0.065,0.11,0.029,0.252-0.08,0.317c-0.42,0.25-0.85,0.493-1.278,0.723
			C232.446,92.015,232.409,92.024,232.372,92.024z M198.932,90.841c-0.042,0-0.085-0.012-0.123-0.036
			c-0.411-0.26-0.824-0.534-1.227-0.814c-0.105-0.073-0.131-0.217-0.058-0.322c0.072-0.105,0.217-0.131,0.322-0.058
			c0.398,0.276,0.805,0.546,1.21,0.802c0.108,0.068,0.14,0.211,0.072,0.319C199.084,90.802,199.009,90.841,198.932,90.841z
			 M235.485,90.124c-0.074,0-0.146-0.035-0.191-0.1c-0.072-0.105-0.046-0.249,0.06-0.321c0.394-0.271,0.79-0.556,1.175-0.847
			c0.102-0.077,0.247-0.057,0.324,0.045c0.077,0.102,0.057,0.247-0.045,0.324c-0.391,0.295-0.792,0.585-1.192,0.86
			C235.576,90.11,235.53,90.124,235.485,90.124z M195.956,88.723c-0.051,0-0.102-0.017-0.144-0.051
			c-0.382-0.305-0.762-0.622-1.13-0.942c-0.096-0.084-0.106-0.23-0.023-0.326c0.084-0.097,0.23-0.106,0.326-0.023
			c0.363,0.316,0.738,0.629,1.114,0.929c0.1,0.08,0.116,0.225,0.037,0.325C196.091,88.693,196.023,88.723,195.956,88.723z
			 M238.373,87.894c-0.065,0-0.129-0.027-0.175-0.08c-0.083-0.097-0.073-0.243,0.024-0.326c0.365-0.316,0.728-0.642,1.077-0.972
			c0.093-0.088,0.239-0.083,0.327,0.01c0.088,0.093,0.083,0.239-0.01,0.327c-0.354,0.334-0.721,0.665-1.091,0.985
			C238.48,87.875,238.427,87.894,238.373,87.894z M193.23,86.293c-0.059,0-0.118-0.023-0.163-0.067
			c-0.345-0.343-0.688-0.699-1.02-1.06c-0.087-0.094-0.081-0.24,0.013-0.327c0.094-0.087,0.24-0.081,0.327,0.013
			c0.327,0.355,0.666,0.707,1.006,1.045c0.09,0.09,0.091,0.236,0.001,0.327C193.349,86.27,193.289,86.293,193.23,86.293z
			 M241.001,85.361c-0.057,0-0.113-0.021-0.158-0.062c-0.093-0.087-0.098-0.233-0.012-0.327c0.327-0.351,0.652-0.716,0.965-1.083
			c0.083-0.097,0.229-0.108,0.326-0.026c0.097,0.083,0.109,0.229,0.026,0.326c-0.318,0.373-0.647,0.743-0.979,1.099
			C241.125,85.336,241.063,85.361,241.001,85.361z M190.787,83.581c-0.067,0-0.134-0.03-0.18-0.086
			c-0.307-0.38-0.608-0.771-0.898-1.164c-0.076-0.103-0.054-0.247,0.049-0.323c0.103-0.076,0.248-0.054,0.323,0.049
			c0.285,0.387,0.583,0.773,0.885,1.148c0.08,0.099,0.065,0.245-0.035,0.325C190.889,83.565,190.838,83.581,190.787,83.581z
			 M243.338,82.555c-0.048,0-0.096-0.015-0.138-0.046c-0.103-0.076-0.124-0.221-0.047-0.323c0.288-0.387,0.571-0.785,0.841-1.183
			c0.072-0.106,0.216-0.134,0.321-0.062c0.106,0.072,0.134,0.216,0.062,0.321c-0.274,0.404-0.561,0.808-0.853,1.2
			C243.479,82.523,243.409,82.555,243.338,82.555z M188.655,80.621c-0.076,0-0.151-0.038-0.195-0.107
			c-0.263-0.411-0.52-0.833-0.765-1.254c-0.064-0.111-0.026-0.252,0.084-0.316c0.111-0.065,0.252-0.026,0.316,0.084
			c0.241,0.416,0.494,0.832,0.754,1.237c0.069,0.107,0.038,0.25-0.07,0.319C188.74,80.609,188.697,80.621,188.655,80.621z
			 M245.356,79.509c-0.04,0-0.08-0.01-0.116-0.032c-0.11-0.064-0.147-0.206-0.083-0.316c0.244-0.417,0.482-0.844,0.707-1.269
			c0.059-0.113,0.2-0.156,0.312-0.096c0.113,0.06,0.156,0.199,0.096,0.312c-0.228,0.431-0.469,0.864-0.716,1.287
			C245.513,79.469,245.435,79.509,245.356,79.509z M186.86,77.446c-0.085,0-0.167-0.047-0.207-0.129
			c-0.216-0.435-0.425-0.883-0.622-1.33c-0.051-0.117,0.002-0.253,0.118-0.305c0.117-0.051,0.253,0.002,0.305,0.118
			c0.194,0.441,0.401,0.882,0.613,1.311c0.057,0.115,0.01,0.253-0.105,0.31C186.93,77.439,186.895,77.446,186.86,77.446z
			 M247.027,76.259c-0.032,0-0.064-0.006-0.094-0.02c-0.117-0.052-0.169-0.189-0.117-0.305c0.195-0.437,0.384-0.888,0.563-1.34
			c0.047-0.119,0.182-0.177,0.3-0.131c0.119,0.047,0.177,0.181,0.131,0.3c-0.181,0.459-0.373,0.916-0.571,1.359
			C247.199,76.208,247.115,76.259,247.027,76.259z M185.427,74.096c-0.095,0-0.183-0.058-0.217-0.152
			c-0.167-0.459-0.326-0.928-0.472-1.394c-0.038-0.122,0.03-0.252,0.152-0.29c0.122-0.038,0.252,0.03,0.29,0.152
			c0.144,0.459,0.301,0.921,0.465,1.374c0.044,0.12-0.018,0.253-0.138,0.296C185.48,74.091,185.454,74.096,185.427,74.096z
			 M248.33,72.842c-0.023,0-0.047-0.004-0.07-0.011c-0.122-0.039-0.189-0.169-0.15-0.29c0.146-0.459,0.284-0.927,0.41-1.391
			c0.033-0.123,0.16-0.196,0.284-0.163c0.123,0.033,0.196,0.161,0.163,0.284c-0.128,0.471-0.268,0.945-0.416,1.411
			C248.519,72.779,248.428,72.842,248.33,72.842z M184.37,70.602c-0.104,0-0.199-0.071-0.224-0.177
			c-0.115-0.474-0.221-0.958-0.316-1.437c-0.025-0.125,0.057-0.247,0.182-0.272c0.125-0.024,0.247,0.057,0.271,0.182
			c0.093,0.473,0.198,0.949,0.311,1.417c0.03,0.124-0.046,0.249-0.17,0.279C184.407,70.6,184.388,70.602,184.37,70.602z
			 M249.246,69.308c-0.015,0-0.031-0.002-0.046-0.005c-0.125-0.025-0.207-0.147-0.181-0.272c0.095-0.47,0.18-0.951,0.254-1.428
			c0.02-0.126,0.142-0.213,0.264-0.193c0.126,0.02,0.213,0.138,0.193,0.264c-0.075,0.484-0.162,0.971-0.257,1.448
			C249.45,69.232,249.354,69.308,249.246,69.308z M183.706,67.013c-0.115,0-0.214-0.085-0.229-0.202
			c-0.062-0.482-0.114-0.974-0.155-1.462c-0.011-0.127,0.084-0.239,0.211-0.25c0.132-0.013,0.239,0.084,0.25,0.211
			c0.041,0.482,0.092,0.967,0.153,1.442c0.016,0.127-0.073,0.243-0.2,0.259C183.725,67.012,183.716,67.013,183.706,67.013z
			 M249.766,65.695c-0.007,0-0.014,0-0.021-0.001c-0.127-0.011-0.221-0.124-0.21-0.251c0.042-0.482,0.075-0.969,0.096-1.447
			c0.005-0.128,0.113-0.221,0.241-0.221c0.128,0.006,0.226,0.114,0.221,0.241c-0.022,0.485-0.054,0.978-0.097,1.467
			C249.986,65.604,249.885,65.695,249.766,65.695z M183.439,63.372c-0.126,0-0.229-0.101-0.231-0.227
			c-0.004-0.216-0.006-0.433-0.006-0.649c0-0.488,0.011-0.983,0.032-1.47c0.005-0.128,0.116-0.227,0.241-0.221
			c0.128,0.005,0.226,0.113,0.221,0.241c-0.021,0.481-0.031,0.969-0.031,1.45c0,0.214,0.002,0.428,0.006,0.64
			c0.002,0.128-0.099,0.233-0.227,0.236C183.441,63.372,183.44,63.372,183.439,63.372z M249.889,62.047
			c-0.126,0-0.229-0.101-0.231-0.227c-0.009-0.484-0.03-0.971-0.06-1.449c-0.008-0.128,0.088-0.237,0.216-0.245
			c0.121-0.009,0.237,0.088,0.245,0.216c0.031,0.485,0.051,0.98,0.061,1.47c0.002,0.128-0.099,0.233-0.227,0.236
			C249.892,62.047,249.891,62.047,249.889,62.047z M183.63,59.083c-0.008,0-0.017,0-0.025-0.001
			c-0.127-0.014-0.219-0.128-0.205-0.255c0.053-0.49,0.118-0.981,0.192-1.458c0.02-0.126,0.136-0.212,0.264-0.193
			c0.126,0.019,0.213,0.138,0.193,0.264c-0.073,0.471-0.136,0.955-0.189,1.438C183.847,58.995,183.747,59.083,183.63,59.083z
			 M249.618,58.407c-0.115,0-0.214-0.085-0.229-0.202c-0.062-0.479-0.136-0.962-0.218-1.434c-0.022-0.126,0.062-0.246,0.188-0.268
			c0.124-0.023,0.245,0.062,0.268,0.188c0.084,0.479,0.158,0.968,0.222,1.454c0.016,0.127-0.073,0.243-0.199,0.259
			C249.638,58.406,249.628,58.407,249.618,58.407z M184.225,55.482c-0.017,0-0.034-0.002-0.051-0.006
			c-0.125-0.028-0.203-0.151-0.176-0.276c0.106-0.474,0.224-0.954,0.351-1.428c0.033-0.123,0.158-0.196,0.283-0.163
			c0.123,0.033,0.196,0.16,0.163,0.283c-0.126,0.468-0.242,0.942-0.346,1.409C184.427,55.408,184.331,55.482,184.225,55.482z
			 M248.949,54.819c-0.104,0-0.198-0.071-0.224-0.177c-0.113-0.465-0.24-0.937-0.375-1.401c-0.036-0.123,0.035-0.251,0.157-0.287
			c0.123-0.037,0.251,0.035,0.287,0.157c0.137,0.471,0.265,0.949,0.38,1.421c0.03,0.124-0.046,0.249-0.17,0.279
			C248.986,54.816,248.967,54.819,248.949,54.819z M185.214,51.968c-0.025,0-0.05-0.004-0.075-0.013
			c-0.121-0.041-0.185-0.173-0.144-0.294c0.159-0.464,0.33-0.93,0.508-1.384c0.047-0.119,0.182-0.177,0.3-0.131
			c0.119,0.047,0.177,0.181,0.131,0.3c-0.176,0.448-0.345,0.907-0.501,1.365C185.4,51.907,185.31,51.968,185.214,51.968z
			 M247.888,51.326c-0.094,0-0.183-0.058-0.217-0.152c-0.166-0.453-0.343-0.906-0.526-1.347c-0.049-0.118,0.007-0.253,0.125-0.302
			c0.117-0.049,0.253,0.007,0.302,0.125c0.186,0.447,0.365,0.907,0.533,1.366c0.044,0.12-0.018,0.253-0.138,0.296
			C247.941,51.321,247.914,51.326,247.888,51.326z M186.588,48.579c-0.033,0-0.067-0.007-0.099-0.022
			c-0.115-0.055-0.165-0.192-0.11-0.308c0.208-0.441,0.429-0.885,0.658-1.318c0.06-0.112,0.198-0.157,0.312-0.097
			c0.113,0.06,0.156,0.199,0.097,0.312c-0.225,0.428-0.443,0.865-0.649,1.3C186.757,48.53,186.674,48.579,186.588,48.579z
			 M246.451,47.978c-0.085,0-0.167-0.047-0.207-0.129c-0.212-0.428-0.438-0.859-0.672-1.282c-0.062-0.112-0.021-0.252,0.09-0.314
			c0.113-0.062,0.253-0.021,0.314,0.091c0.237,0.429,0.466,0.867,0.682,1.301c0.057,0.114,0.01,0.253-0.105,0.31
			C246.521,47.97,246.486,47.978,246.451,47.978z M188.326,45.364c-0.041,0-0.083-0.011-0.121-0.034
			c-0.109-0.067-0.143-0.209-0.076-0.318c0.254-0.414,0.523-0.83,0.798-1.237c0.071-0.106,0.215-0.134,0.321-0.062
			c0.106,0.072,0.133,0.215,0.062,0.321c-0.272,0.402-0.536,0.812-0.787,1.22C188.479,45.325,188.404,45.364,188.326,45.364z
			 M244.653,44.806c-0.076,0-0.151-0.038-0.195-0.106c-0.258-0.402-0.53-0.807-0.809-1.202c-0.074-0.104-0.049-0.249,0.056-0.322
			c0.104-0.074,0.248-0.049,0.322,0.055c0.283,0.401,0.559,0.811,0.821,1.219c0.069,0.107,0.038,0.25-0.07,0.319
			C244.739,44.794,244.695,44.806,244.653,44.806z M190.406,42.361c-0.05,0-0.1-0.016-0.142-0.049
			c-0.101-0.078-0.119-0.224-0.041-0.324c0.301-0.387,0.613-0.771,0.928-1.142c0.083-0.097,0.229-0.109,0.326-0.026
			c0.097,0.083,0.109,0.229,0.027,0.326c-0.311,0.366-0.619,0.745-0.916,1.126C190.543,42.33,190.475,42.361,190.406,42.361z
			 M242.517,41.848c-0.067,0-0.134-0.029-0.18-0.086c-0.302-0.373-0.617-0.746-0.936-1.107c-0.085-0.096-0.076-0.242,0.02-0.326
			c0.096-0.085,0.242-0.075,0.326,0.02c0.324,0.366,0.643,0.744,0.949,1.123c0.08,0.099,0.065,0.245-0.034,0.325
			C242.619,41.831,242.568,41.848,242.517,41.848z M192.801,39.604c-0.058,0-0.116-0.022-0.161-0.065
			c-0.092-0.089-0.094-0.235-0.005-0.327c0.342-0.352,0.694-0.7,1.046-1.033c0.093-0.088,0.24-0.083,0.327,0.009
			c0.088,0.093,0.084,0.239-0.009,0.327c-0.348,0.329-0.695,0.672-1.032,1.019C192.921,39.58,192.861,39.604,192.801,39.604z
			 M240.071,39.14c-0.059,0-0.118-0.022-0.163-0.067c-0.344-0.341-0.698-0.677-1.052-0.999c-0.095-0.086-0.102-0.232-0.016-0.327
			c0.086-0.095,0.232-0.101,0.327-0.016c0.36,0.327,0.719,0.668,1.067,1.013c0.091,0.09,0.091,0.236,0.001,0.327
			C240.19,39.117,240.13,39.14,240.071,39.14z M195.481,37.126c-0.066,0-0.132-0.028-0.178-0.084
			c-0.081-0.098-0.068-0.244,0.031-0.326c0.377-0.312,0.765-0.619,1.152-0.913c0.102-0.078,0.247-0.057,0.324,0.045
			c0.077,0.102,0.057,0.247-0.045,0.324c-0.382,0.289-0.765,0.592-1.137,0.9C195.585,37.108,195.533,37.126,195.481,37.126z
			 M237.341,36.713c-0.051,0-0.101-0.016-0.144-0.05c-0.377-0.299-0.765-0.595-1.156-0.879c-0.103-0.075-0.126-0.22-0.051-0.323
			c0.074-0.103,0.219-0.126,0.323-0.051c0.396,0.288,0.79,0.587,1.171,0.891c0.1,0.079,0.117,0.225,0.037,0.325
			C237.477,36.684,237.409,36.713,237.341,36.713z M198.414,34.956c-0.075,0-0.149-0.037-0.193-0.104
			c-0.07-0.107-0.041-0.25,0.066-0.32c0.407-0.268,0.825-0.53,1.244-0.781c0.11-0.066,0.252-0.03,0.317,0.08
			c0.066,0.11,0.03,0.252-0.08,0.317c-0.413,0.247-0.826,0.506-1.228,0.77C198.502,34.944,198.458,34.956,198.414,34.956z
			 M234.363,34.599c-0.042,0-0.085-0.012-0.123-0.036c-0.408-0.257-0.827-0.508-1.246-0.747c-0.111-0.063-0.15-0.204-0.086-0.315
			c0.063-0.111,0.204-0.15,0.315-0.086c0.424,0.242,0.849,0.497,1.263,0.758c0.108,0.068,0.141,0.211,0.072,0.319
			C234.515,34.561,234.44,34.599,234.363,34.599z M201.565,33.121c-0.084,0-0.165-0.046-0.206-0.126
			c-0.058-0.114-0.013-0.253,0.101-0.311c0.434-0.222,0.879-0.437,1.322-0.639c0.114-0.053,0.253-0.002,0.306,0.114
			c0.053,0.116,0.002,0.253-0.115,0.306c-0.437,0.199-0.875,0.411-1.303,0.63C201.637,33.113,201.601,33.121,201.565,33.121z
			 M231.168,32.823c-0.034,0-0.068-0.008-0.101-0.023c-0.433-0.211-0.877-0.414-1.321-0.606c-0.117-0.051-0.171-0.187-0.121-0.304
			c0.051-0.117,0.187-0.171,0.304-0.121c0.45,0.194,0.9,0.401,1.34,0.614c0.115,0.056,0.163,0.194,0.107,0.309
			C231.337,32.775,231.254,32.823,231.168,32.823z M204.897,31.644c-0.093,0-0.181-0.057-0.216-0.149
			c-0.045-0.119,0.015-0.253,0.134-0.298c0.457-0.173,0.924-0.338,1.386-0.49c0.123-0.04,0.252,0.026,0.292,0.147
			c0.04,0.121-0.026,0.252-0.147,0.292c-0.456,0.15-0.916,0.313-1.368,0.484C204.952,31.639,204.925,31.644,204.897,31.644z
			 M227.797,31.41c-0.026,0-0.052-0.004-0.078-0.014c-0.455-0.161-0.919-0.315-1.381-0.456c-0.122-0.037-0.191-0.167-0.153-0.289
			c0.037-0.122,0.165-0.191,0.289-0.153c0.468,0.143,0.939,0.299,1.401,0.463c0.12,0.043,0.183,0.175,0.14,0.295
			C227.981,31.351,227.892,31.41,227.797,31.41z M208.377,30.542c-0.103,0-0.197-0.069-0.224-0.174
			c-0.032-0.124,0.043-0.25,0.166-0.281c0.474-0.122,0.956-0.234,1.432-0.334c0.124-0.027,0.247,0.054,0.274,0.179
			c0.026,0.125-0.054,0.248-0.179,0.274c-0.47,0.099-0.945,0.209-1.413,0.329C208.416,30.54,208.396,30.542,208.377,30.542z
			 M224.291,30.38c-0.018,0-0.035-0.002-0.053-0.006c-0.466-0.11-0.944-0.211-1.419-0.3c-0.125-0.024-0.208-0.144-0.184-0.27
			c0.024-0.125,0.144-0.207,0.27-0.184c0.482,0.091,0.966,0.193,1.439,0.305c0.124,0.029,0.201,0.154,0.172,0.278
			C224.491,30.308,224.396,30.38,224.291,30.38z M211.957,29.832c-0.113,0-0.212-0.083-0.229-0.199
			c-0.018-0.126,0.07-0.244,0.197-0.261c0.483-0.069,0.975-0.127,1.46-0.175c0.131-0.01,0.24,0.081,0.253,0.208
			c0.013,0.127-0.08,0.24-0.207,0.253c-0.479,0.047-0.963,0.105-1.44,0.172C211.979,29.831,211.968,29.832,211.957,29.832z
			 M220.697,29.743c-0.009,0-0.019-0.001-0.028-0.002c-0.477-0.058-0.963-0.106-1.444-0.143c-0.127-0.01-0.223-0.121-0.213-0.248
			c0.01-0.128,0.124-0.224,0.248-0.213c0.487,0.037,0.98,0.086,1.464,0.145c0.127,0.015,0.217,0.13,0.202,0.257
			C220.912,29.657,220.813,29.743,220.697,29.743z M215.594,29.518c-0.124,0-0.227-0.099-0.231-0.224
			c-0.004-0.128,0.096-0.234,0.224-0.238c0.489-0.015,0.982-0.02,1.471-0.015c0.128,0.001,0.23,0.106,0.229,0.234
			c-0.002,0.128-0.119,0.223-0.234,0.229c-0.482-0.005-0.969,0-1.451,0.015C215.599,29.518,215.596,29.518,215.594,29.518z"/>
	</g>
	<g>
		<g>
			<path fill="#E5E5E5" d="M216.663,37.494c13.789,0,25.008,11.216,25.008,25.003c0,13.791-11.218,25.011-25.008,25.011
				c-13.786,0-25.001-11.22-25.001-25.011C191.662,48.71,202.877,37.494,216.663,37.494 M216.663,35.302
				c-15.02,0-27.193,12.177-27.193,27.195c0,15.022,12.174,27.203,27.193,27.203c15.02,0,27.2-12.181,27.2-27.203
				C243.862,47.479,231.683,35.302,216.663,35.302L216.663,35.302z"/>
		</g>
	</g>
</g>
<g>
	<g>
		<path fill="#010101" d="M364.24,4.03c32.292,0,58.47,26.178,58.47,58.47s-26.178,58.47-58.47,58.47s-58.47-26.178-58.47-58.47
			S331.948,4.03,364.24,4.03 M364.24,0c-8.436,0-16.621,1.653-24.329,4.913c-7.443,3.148-14.127,7.654-19.865,13.393
			c-5.739,5.739-10.245,12.422-13.393,19.865c-3.26,7.708-4.913,15.893-4.913,24.329s1.653,16.621,4.913,24.329
			c3.148,7.443,7.654,14.127,13.393,19.865c5.739,5.739,12.422,10.245,19.865,13.393c7.708,3.26,15.893,4.913,24.329,4.913
			c8.436,0,16.621-1.653,24.329-4.913c7.443-3.148,14.127-7.654,19.865-13.393c5.739-5.739,10.245-12.422,13.393-19.865
			c3.26-7.708,4.913-15.893,4.913-24.329s-1.653-16.621-4.913-24.329c-3.148-7.443-7.654-14.127-13.393-19.865
			c-5.739-5.739-12.422-10.245-19.865-13.393C380.862,1.653,372.676,0,364.24,0L364.24,0z"/>
	</g>
	<g>
		<g>
			<path fill="#4AC2C4" d="M388.72,60.925c0.198,0.393,0.387,0.768,0.576,1.142c0.064,0.126,0.128,0.252,0.193,0.378
				c0.474,0.925,0.948,1.851,1.423,2.775c0.131,0.255,0.286,0.5,0.401,0.762c0.152,0.345,0.28,0.701,0.406,1.057
				c0.014,0.038-0.039,0.136-0.082,0.152c-0.209,0.082-0.421,0.174-0.64,0.212c-1.211,0.21-2.421,0.438-3.639,0.591
				c-0.506,0.063-1.033-0.06-1.55-0.072c-0.344-0.008-0.63-0.083-0.859-0.367c-0.054-0.067-0.24-0.027-0.402-0.039
				c0.151,0.315-0.049,0.387-0.262,0.47c-0.374,0.144-0.738,0.312-1.112,0.455c-0.385,0.147-0.779,0.272-1.166,0.415
				c-0.111,0.041-0.213,0.108-0.318,0.165c-0.082,0.045-0.166,0.086-0.241,0.141c-0.067,0.049-0.123,0.113-0.183,0.172
				c-0.134,0.131-0.265,0.266-0.403,0.393c-0.382,0.352-0.773,0.695-1.15,1.053c-0.827,0.786-1.769,1.4-2.77,1.941
				c-0.833,0.451-1.702,0.815-2.577,1.169c-0.074,0.03-0.136,0.088-0.204,0.133c-0.056,0.037-0.108,0.086-0.17,0.106
				c-0.247,0.082-0.499,0.147-0.744,0.231c-0.6,0.207-1.194,0.432-1.797,0.629c-0.774,0.252-1.453,0.652-2.053,1.203
				c-0.209,0.192-0.456,0.342-0.688,0.508c-0.9,0.645-1.554,1.505-2.149,2.424c-0.484,0.748-1.012,1.468-1.523,2.2
				c-0.297,0.425-0.592,0.853-0.906,1.266c-0.044,0.057-0.198,0.065-0.29,0.045c-0.538-0.119-1.071-0.261-1.61-0.379
				c-0.134-0.029-0.293-0.027-0.421,0.018c-0.287,0.1-0.355,0.301-0.271,0.671c0.085,0.372,0.139,0.747,0.292,1.109
				c0.127,0.3,0.067,0.584-0.405,0.536c-0.819-0.083-1.59-0.34-2.354-0.623c-0.272-0.101-0.469-0.042-0.62,0.209
				c-0.952,1.587-1.904,3.174-2.857,4.76c-0.163,0.272-0.331,0.542-0.499,0.811c-0.118,0.189-0.238,0.205-0.334,0.015
				c-0.166-0.326-0.434-0.553-0.684-0.805c-0.101-0.102-0.146-0.268-0.195-0.412c-0.091-0.27-0.081-0.592-0.423-0.72
				c-0.034-0.013-0.062-0.154-0.034-0.201c0.53-0.897,1.064-1.792,1.607-2.681c0.111-0.182,0.138-0.323-0.034-0.487
				c-0.355-0.339-0.51-0.791-0.68-1.237c-0.062-0.163-0.198-0.298-0.306-0.442c-0.063-0.084-0.146-0.155-0.203-0.243
				c-0.096-0.149-0.077-0.254,0.114-0.327c0.165-0.063,0.321-0.164,0.465-0.269c0.189-0.138,0.383-0.236,0.625-0.221
				c0.139,0.009,0.215-0.035,0.164-0.202c-0.083-0.272,0.003-0.439,0.273-0.517c0.287-0.083,0.578-0.151,0.87-0.215
				c0.158-0.035,0.386,0.145,0.415,0.314c0.005,0.03-0.007,0.065,0.006,0.09c0.06,0.116,0.143,0.332,0.186,0.325
				c0.165-0.028,0.321-0.122,0.474-0.204c0.055-0.029,0.083-0.124,0.136-0.136c0.294-0.069,0.343-0.302,0.386-0.543
				c0.059-0.331-0.014-0.638-0.134-0.95c-0.095-0.249-0.134-0.522-0.177-0.788c-0.011-0.065,0.041-0.17,0.097-0.21
				c0.103-0.073,0.127-0.19,0.193-0.269c0.234-0.28,0.038-0.518-0.071-0.721c-0.594-1.113-1.219-2.209-1.828-3.314
				c-0.073-0.133-0.154-0.171-0.289-0.104c-0.054,0.027-0.112,0.045-0.169,0.066c-0.188,0.072-0.238,0.033-0.268-0.157
				c-0.02-0.124-0.089-0.24-0.122-0.363c-0.022-0.081-0.059-0.202-0.021-0.249c0.193-0.238,0.109-0.501,0.1-0.758
				c-0.002-0.053-0.012-0.105-0.013-0.158c-0.013-0.527-0.008-0.512,0.491-0.667c0.355-0.11,0.62-0.337,0.677-0.735
				c0.088-0.61,0.18-1.219,0.26-1.83c0.044-0.333,0.023-0.359-0.308-0.344c-1.07,0.047-2.14,0.105-3.21,0.154
				c-0.528,0.024-1.057,0.033-1.585,0.055c-0.806,0.033-1.612,0.071-2.423,0.107c0,0.302-0.008,0.586,0.002,0.87
				c0.022,0.655,0.05,1.31,0.082,1.964c0.008,0.174-0.029,0.264-0.233,0.263c-0.354-0.001-0.709,0.029-1.063,0.041
				c-0.408,0.013-0.816,0.011-1.223,0.035c-0.174,0.01-0.345,0.068-0.523,0.106c0,0.377-0.011,0.774,0.005,1.17
				c0.008,0.2-0.05,0.297-0.256,0.295c-0.166-0.002-0.334-0.007-0.498,0.014c-0.121,0.016-0.237,0.071-0.355,0.111
				c-0.042,0.014-0.08,0.043-0.123,0.05c-0.18,0.029-0.554-0.178-0.641-0.345c-0.093-0.179-0.192-0.356-0.297-0.551
				c-0.305,0.179-0.584,0.342-0.863,0.505c-0.187,0.109-0.254,0.077-0.279-0.138c-0.039-0.343-0.072-0.687-0.108-1.032
				c-0.353-0.063-0.351-0.063-0.37-0.425c-0.02-0.376-0.044-0.752-0.069-1.17c-0.318,0.023-0.642,0.022-0.956,0.073
				c-0.91,0.149-1.819,0.287-2.744,0.276c-0.444-0.005-0.5-0.046-0.536-0.487c-0.075-0.894-0.123-1.791-0.218-2.682
				c-0.137-1.276-0.153-2.555-0.178-3.835c-0.006-0.294-0.001-0.588-0.001-0.917c-0.13,0.007-0.223,0.016-0.315,0.017
				c-0.28,0.002-0.56-0.002-0.84,0.003c-0.155,0.003-0.215-0.069-0.221-0.219c-0.023-0.611-0.054-1.222-0.076-1.833
				c-0.048-1.336-0.092-2.672-0.138-4.008c0-0.014-0.01-0.027-0.012-0.032c-0.333,0-0.662-0.004-0.991,0.002
				c-0.15,0.003-0.3,0.024-0.45,0.04c-0.153,0.016-0.226-0.054-0.232-0.205c-0.026-0.618-0.054-1.237-0.081-1.855
				c-0.052-1.175-0.107-2.351-0.156-3.526c-0.03-0.701-0.053-1.403-0.075-2.105c-0.005-0.149,0.089-0.214,0.232-0.218
				c0.529-0.016,1.057-0.03,1.586-0.051c0.822-0.033,1.644-0.07,2.466-0.106c0.294-0.232,0.624-0.035,0.935-0.074
				c0.171-0.021,0.349,0.009,0.521-0.009c0.119-0.012,0.234-0.069,0.351-0.102c0.064-0.018,0.147-0.059,0.193-0.035
				c0.373,0.195,0.759,0.048,1.137,0.049c0.513,0.002,1.026-0.043,1.538-0.067c1.123-0.053,2.247-0.106,3.37-0.158
				c0.219-0.01,0.466,0.046,0.65-0.039c0.347-0.159,0.679-0.034,1.016-0.048c0.709-0.03,1.418-0.057,2.126-0.103
				c0.288-0.019,0.574-0.085,0.861-0.129c0.037-0.006,0.077-0.022,0.111-0.014c0.717,0.164,1.435,0.023,2.152,0.008
				c0.686-0.014,1.371-0.065,2.057-0.1c0.543-0.027,1.085-0.05,1.628-0.082c0.062-0.004,0.119-0.059,0.182-0.073
				c0.076-0.017,0.157-0.025,0.235-0.02c0.191,0.013,0.381,0.05,0.571,0.05c0.302,0,0.603-0.025,0.905-0.035
				c0.989-0.035,1.978-0.063,2.966-0.105c0.595-0.025,1.19-0.085,1.785-0.1c0.55-0.014,1.101,0.03,1.651,0.016
				c0.708-0.017,1.415-0.065,2.123-0.103c0.056-0.003,0.108-0.045,0.164-0.063c0.063-0.02,0.139-0.063,0.189-0.044
				c0.466,0.172,0.942,0.026,1.412,0.047c0.444,0.02,0.89-0.019,1.335-0.043c0.912-0.048,1.823-0.103,2.734-0.153
				c0.249-0.014,0.498-0.017,0.747-0.029c1.063-0.052,2.126-0.107,3.189-0.158c0.445-0.022,0.891-0.033,1.336-0.056
				c1.446-0.077,2.891-0.158,4.337-0.237c0.399-0.022,0.799-0.033,1.198-0.064c0.13-0.01,0.255-0.07,0.384-0.1
				c0.064-0.015,0.132-0.026,0.197-0.022c0.274,0.014,0.548,0.057,0.82,0.047c0.912-0.032,1.824-0.084,2.736-0.125
				c0.317-0.014,0.634-0.025,0.951-0.023c0.091,0.001,0.182,0.051,0.272,0.078c-0.028,0.08-0.045,0.166-0.085,0.24
				c-0.489,0.892-0.984,1.781-1.469,2.675c-0.07,0.13-0.037,0.252,0.116,0.332c1.138,0.595,2.276,1.192,3.409,1.795
				c0.5,0.266,0.991,0.55,1.486,0.824c0.429,0.237,0.856,0.479,1.291,0.704c0.171,0.089,0.229,0.205,0.181,0.382
				c-0.154,0.567-0.293,1.138-0.47,1.698c-0.224,0.712-0.465,1.42-0.727,2.119c-0.142,0.38-0.34,0.74-0.522,1.105
				c-0.031,0.062-0.104,0.11-0.168,0.146c-0.514,0.287-1.037,0.557-1.543,0.857c-0.648,0.383-1.366,0.555-2.083,0.735
				C388.825,60.89,388.792,60.902,388.72,60.925z"/>
		</g>
		<g>
			<path fill="#4AC2C4" d="M386.08,68.855c0.389,0,0.759,0,1.13,0c0.008,0,0.015-0.001,0.023,0c0.14,0.009,0.325-0.245,0.406-0.007
				c0.107,0.318,0.408,0.643,0.058,1.012c-0.184,0.194-0.308,0.444-0.47,0.66c-0.157,0.208-0.294,0.457-0.503,0.592
				c-0.193,0.125-0.465,0.136-0.706,0.176c-0.312,0.052-0.637,0.047-0.938,0.134c-0.236,0.068-0.439,0.245-0.664,0.358
				c-0.248,0.124-0.5,0.244-0.759,0.338c-0.466,0.169-0.938,0.321-1.409,0.475c-0.128,0.042-0.26,0.087-0.392,0.093
				c-0.716,0.035-1.433,0.062-2.15,0.083c-0.088,0.003-0.178-0.047-0.267-0.072c0.038-0.09,0.061-0.193,0.118-0.269
				c0.288-0.386,0.575-0.774,0.884-1.142c0.162-0.192,0.347-0.339,0.66-0.261c0.17,0.042,0.411-0.042,0.568-0.147
				c0.25-0.167,0.526-0.208,0.8-0.275c0.273-0.067,0.573-0.056,0.793-0.275c0.083-0.082,0.173-0.16,0.244-0.252
				c0.115-0.149,0.216-0.309,0.324-0.464c0.022-0.031,0.075-0.063,0.07-0.085c-0.068-0.29,0.147-0.313,0.333-0.405
				c0.128-0.063,0.239-0.216,0.297-0.354c0.056-0.134,0.127-0.161,0.249-0.224c0.389-0.202,0.745-0.018,1.114,0.014
				C386.076,68.577,386.185,68.635,386.08,68.855z"/>
		</g>
	</g>
</g>
<g>
</g>
<g>
</g>
<g>
</g>
<g>
</g>
<g>
</g>
<g>
</g>
</svg>
